<svg xmlns="http://www.w3.org/2000/svg" xmlns:xlink="http://www.w3.org/1999/xlink" width="30" height="25" viewBox="0 0 30 25"><defs><path id="9ynna" d="M1047.07 311.56c0 .24-.2.44-.45.44h-14.24a.44.44 0 0 1-.45-.44c0-.24.2-.44.45-.44h5.2v-1.9a.44.44 0 0 1 .89 0v1.9h2.07v-1.9a.44.44 0 0 1 .89 0v1.9h5.2c.24 0 .44.2.44.44zm5.93-20.53v15.84c0 .56-.47 1.02-1.04 1.02h-.74v.15c0 .24-.2.44-.45.44a.44.44 0 0 1-.44-.44v-.15h-.9v.15c0 .24-.19.44-.44.44a.44.44 0 0 1-.44-.44v-.15h-.9v.15c0 .24-.19.44-.44.44a.44.44 0 0 1-.44-.44v-.15h-19.73c-.57 0-1.04-.46-1.04-1.02v-15.84c0-.57.47-1.03 1.04-1.03h24.92c.57 0 1.04.46 1.04 1.03zm-.89 0a.15.15 0 0 0-.15-.15h-24.92a.15.15 0 0 0-.15.15v15.84c0 .07.07.14.15.14h24.92c.08 0 .15-.07.15-.14zm-.89 1.17v9.39c0 .24-.2.44-.45.44a.44.44 0 0 1-.44-.44v-8.95h-22.1a.44.44 0 0 1-.45-.44c0-.24.2-.44.45-.44h22.54c.25 0 .45.2.45.44zm0 11.15v2.34c0 .25-.2.44-.45.44h-22.54a.44.44 0 0 1-.45-.44v-11.73c0-.24.2-.44.45-.44.24 0 .44.2.44.44v11.3h21.66v-1.91a.44.44 0 1 1 .89 0z"/></defs><g><g transform="translate(-1024 -288)"><use fill="#e74c3c" xlink:href="#9ynna"/></g></g></svg>