<svg xmlns="http://www.w3.org/2000/svg" xmlns:xlink="http://www.w3.org/1999/xlink" width="28" height="25" viewBox="0 0 28 25"><defs><path id="ahlva" d="M1051 583.6v10.98a3.41 3.41 0 0 1-3.35 3.42h-18.3a3.41 3.41 0 0 1-3.35-3.42V583.6c0-1.87 1.51-3.4 3.35-3.4l2.43-.01 2.6-3.82c.15-.22.4-.37.67-.37h6.77c.28 0 .54.15.7.39l2.5 3.8 2.63.01a3.39 3.39 0 0 1 3.35 3.4zm-1.65 10.98h-.01V583.6c0-.95-.77-1.73-1.7-1.73l-3.08-.03a.85.85 0 0 1-.68-.37l-2.5-3.79h-5.89l-2.6 3.82a.82.82 0 0 1-.67.37h-2.87c-.93 0-1.7.78-1.7 1.73v10.98c0 .94.77 1.75 1.7 1.75h18.3c.93 0 1.7-.8 1.7-1.75zm-4.94-6.46a5.89 5.89 0 0 1-5.84 5.91 5.89 5.89 0 0 1-5.84-5.91 5.88 5.88 0 0 1 5.84-5.91 5.89 5.89 0 0 1 5.84 5.9zm-1.65 0a4.22 4.22 0 0 0-4.2-4.24c-2.3 0-4.18 1.9-4.18 4.24a4.23 4.23 0 0 0 4.19 4.24c2.3 0 4.19-1.9 4.19-4.24zm3.62-3.79c.18 0 .32.15.32.32a.32.32 0 0 1-.63 0c0-.17.14-.32.31-.32zm1.14.32c0 .64-.5 1.16-1.14 1.16-.63 0-1.14-.52-1.14-1.16 0-.64.51-1.15 1.14-1.15.64 0 1.14.51 1.14 1.15zm-.63 0a.52.52 0 0 0-.5-.51c-.28 0-.51.24-.51.51 0 .28.22.52.5.52.3 0 .51-.24.51-.52z"/></defs><g><g transform="translate(-1024 -574)"><use fill="#e74c3c" xlink:href="#ahlva"/></g></g></svg>