<svg xmlns="http://www.w3.org/2000/svg" xmlns:xlink="http://www.w3.org/1999/xlink" width="20" height="19" viewBox="0 0 20 19"><defs><path id="vnfxa" d="M501.82 2817.7c0 2.05-1.84 3.64-5.4 3.64-3.14 0-6.22-1.15-6.22-3.2 0-2.07 2.85-3.76 5.98-3.76h.98c-.43-.42-.77-.92-.77-1.55 0-.38.12-.72.28-1.04-.17.02-.34.06-.52.06-2.57 0-4.29-1.75-4.29-4.03 0-2.22 2.38-3.98 4.9-3.98h5.64l-1.26.83h-1.79c1.18 0 1.71 1.72 1.71 3.15 0 1.2-.55 2.1-1.48 2.83-.91.71-1.09 1-1.09 1.61 0 .52.98 1.4 1.49 1.77 1.48 1.05 1.84 2.03 1.84 3.67zm-2.68-9.9c-.25-1.91-1.63-3.45-3.08-3.5-1.45-.04-2.42 1.43-2.17 3.34.25 1.92 1.63 3.5 3.08 3.55 1.45.04 2.42-1.47 2.17-3.39zm1.15 10.13c0-.2-.02-.4-.07-.58-.24-.93-.87-1.4-2.04-2.22-.43-.14-.9-.22-1.4-.22-2.17-.03-4.1 1.32-4.1 2.94 0 1.65 1.56 2.58 3.72 2.58 3.04 0 3.9-.84 3.9-2.5zm7.35-13.3v2.54h2.48v1.68h-2.48v2.5h-1.66v-2.5h-2.48v-1.68h2.48v-2.54z"/></defs><g><g transform="translate(-490 -2803)"><use xlink:href="#vnfxa"/></g></g></svg>