<svg xmlns="http://www.w3.org/2000/svg" xmlns:xlink="http://www.w3.org/1999/xlink" width="21" height="20" viewBox="0 0 21 20"><defs><path id="1ylta" d="M526.71 2809.67h4.15v12.49h-4.15zm19.89 5.4v7.09h-4.14v-6.8c0-1.4-1-2.8-2.63-2.8-1.64 0-2.36 1.4-2.36 2.83v6.77h-4.14v-12.49h4.12v1.71c1.14-1.47 2.2-2.13 4.01-2.13 1.81 0 5.14.9 5.14 5.83zm-15.36-9.28c0 1.21-1.1 2.2-2.44 2.2-1.34 0-2.43-.99-2.43-2.2 0-1.21 1.09-2.2 2.43-2.2 1.35 0 2.44.99 2.44 2.2z"/></defs><g><g transform="translate(-526 -2803)"><use xlink:href="#1ylta"/></g></g></svg>