<svg xmlns="http://www.w3.org/2000/svg" xmlns:xlink="http://www.w3.org/1999/xlink" width="34" height="29" viewBox="0 0 34 29"><defs><path id="tnhla" d="M1042.86 431.31l11.37 5.49c.43.2.77.55.77 1 0 .44-.34.79-.77 1l-12 5.78a.45.45 0 0 1-.2.05l-8.52.15a.46.46 0 0 1-.2-.04l-8.54-4.12c-.43-.2-.77-.55-.77-1 0-.44.34-.78.77-1l15.17-7.3a3.4 3.4 0 0 1 1.46-.32c.5 0 1.02.1 1.46.31zm-2.53.78l-15.16 7.31c-.26.13-.28.22-.28.22s.02.1.28.23l8.01 3.86 4.23-2.04a.45.45 0 0 1 .4 0l4.22 2.04 11.8-5.7c.26-.11.28-.2.28-.21 0 0-.02-.1-.27-.22l-11.38-5.49c-.26-.13-.66-.2-1.06-.2s-.8.07-1.07.2zm13.78 5.7zm-29.22 1.83zm17.87-5.67l6.32 3.04c.11.06.16.2.1.3-.06.1-.2.15-.3.1l-6.32-3.06a.22.22 0 0 1-.12-.19c0-.12.09-.21.21-.22.04 0 .07.01.1.03zm-3.16 1.52l6.32 3.05c.12.06.16.19.1.3-.06.1-.2.14-.3.09l-6.32-3.05a.22.22 0 0 1-.12-.2c0-.11.09-.21.21-.21.04 0 .08 0 .1.02zm-3.16 1.52l6.32 3.05c.1.05.15.18.1.29a.22.22 0 0 1-.3.1l-6.32-3.05a.22.22 0 0 1-.12-.19c0-.12.1-.22.21-.22.04 0 .08 0 .11.02zm-5.37.26c.06.1.01.23-.1.28l-4.34 2.1 1.81.87h.01c.11.06.15.19.1.3-.06.1-.2.14-.3.09l-2.21-1.07a.21.21 0 0 1 0-.39l4.73-2.28a.22.22 0 0 1 .1-.03c.09 0 .17.05.2.13zm3.75 6.64l5.37-.1-2.58-1.24zm20.05-.99c.12.27 0 .58-.26.7l-16.96 8.06a.55.55 0 0 1-.47 0l-12.87-6.32h-.01a.52.52 0 0 1-.23-.72.54.54 0 0 1 .72-.22l12.63 6.2 16.72-7.94a.54.54 0 0 1 .73.25zm-11.9 4.06c.07.13.01.29-.12.35l-5.38 2.63a.28.28 0 0 1-.24 0l-4.84-2.42a.26.26 0 0 1-.12-.35.27.27 0 0 1 .36-.12l4.72 2.36 5.26-2.57a.27.27 0 0 1 .37.12zm11.9 1.2c.12.26 0 .57-.26.7l-16.96 8.05a.55.55 0 0 1-.47 0l-12.87-6.32-.02-.01a.52.52 0 0 1-.23-.72.54.54 0 0 1 .73-.21l12.63 6.2 16.72-7.94a.54.54 0 0 1 .73.25zm-11.9 4.05c.07.13.01.29-.12.35l-5.38 2.63a.27.27 0 0 1-.24 0l-4.84-2.42a.26.26 0 0 1-.12-.36.27.27 0 0 1 .36-.1l4.72 2.35 5.26-2.57a.27.27 0 0 1 .12-.03c.1 0 .2.06.24.15z"/></defs><g><g transform="translate(-1022 -429)"><use fill="#e74c3c" xlink:href="#tnhla"/></g></g></svg>