<svg xmlns="http://www.w3.org/2000/svg" xmlns:xlink="http://www.w3.org/1999/xlink" width="21" height="20" viewBox="0 0 21 20"><defs><path id="zfosa" d="M456.24 2820.07a2.9 2.9 0 1 1-5.79 0 2.9 2.9 0 0 1 5.79 0zm7.44 2.69l-.02.23h-3.7l.02-.23a9.5 9.5 0 0 0-9.39-9.38h-.15v-3.68l.15-.01a13.2 13.2 0 0 1 13.09 13.07zm6.63 0v.23h-3.66v-.23c0-8.78-7.26-16.02-16.06-16.02h-.15v-3.71h.15a19.81 19.81 0 0 1 19.72 19.73z"/></defs><g><g transform="translate(-450 -2803)"><use xlink:href="#zfosa"/></g></g></svg>