<svg xmlns="http://www.w3.org/2000/svg" xmlns:xlink="http://www.w3.org/1999/xlink" width="21" height="20" viewBox="0 0 21 20"><defs><path id="gcdja" d="M586.4 2817.9c0 2.81-2.27 5.09-5.07 5.09a4.84 4.84 0 0 1-3.31-1.02c-.6.12-1.21.2-1.84.2-4.9 0-8.87-4.23-8.87-9.15a9 9 0 0 1 .2-1.9 5.06 5.06 0 0 1 4.04-8.12c1.26 0 2.4.7 3.29 1.45a8.7 8.7 0 0 1 10.1 9.9c.9.91 1.45 2.17 1.45 3.56zm-5.56-2.48c0-.53-.1-.97-.3-1.33-.2-.36-.48-.66-.84-.9-.36-.22-.8-.43-1.3-.59a18.8 18.8 0 0 0-1.72-.45l-1.1-.27a3.58 3.58 0 0 1-.64-.26c-.22-.1-.38-.23-.5-.38a.83.83 0 0 1-.19-.54c0-.33.18-.62.54-.86.36-.24.83-.35 1.42-.35.63 0 1.09.1 1.37.32.3.22.53.53.74.92.16.27.3.47.44.59.13.12.33.18.6.18.28 0 .52-.1.7-.3.2-.2.3-.43.3-.68 0-.27-.08-.55-.24-.84a2.7 2.7 0 0 0-.72-.82 3.9 3.9 0 0 0-1.25-.63 6 6 0 0 0-1.79-.23c-.86 0-1.61.11-2.25.35-.64.24-1.12.58-1.46 1.02-.33.45-.5.95-.5 1.52 0 .6.16 1.1.48 1.5.31.4.74.72 1.29.96.54.23 1.21.43 2.02.6.6.13 1.08.25 1.44.37.36.11.65.27.88.49.23.2.34.49.34.83 0 .44-.2.8-.63 1.09-.42.29-.97.43-1.64.43-.49 0-.88-.07-1.19-.21-.3-.15-.53-.33-.7-.55-.16-.22-.31-.5-.46-.83a1.63 1.63 0 0 0-.42-.63.9.9 0 0 0-.61-.2c-.3 0-.54.08-.73.27-.2.18-.29.4-.29.65 0 .44.16.89.48 1.35.32.46.73.84 1.24 1.11.72.39 1.63.58 2.74.58.92 0 1.72-.14 2.4-.42a3.42 3.42 0 0 0 1.53-1.17c.35-.5.52-1.07.52-1.7z"/></defs><g><g transform="translate(-566 -2803)"><use xlink:href="#gcdja"/></g></g></svg>