<svg xmlns="http://www.w3.org/2000/svg" xmlns:xlink="http://www.w3.org/1999/xlink" width="21" height="19" viewBox="0 0 21 19"><defs><path id="prswa" d="M606.29 2809.48c1.75-1.37 4.24-3.98 6.18-3.98 1.94 0 2.41 1.84 2.68 3.89.27 2.04 1.03 6.51 2.05 6.51 1.03 0 3.37-3.95 3.24-5.48-.13-1.53-1.83-1.3-2.76-.86.86-3.06 2.84-4.87 5.36-4.87 2.53 0 3.14 1.95 3.14 4.1 0 3.29-6.77 13.36-10.86 13.36-2.53 0-3.16-3.67-3.67-5.48-.51-1.82-1.52-6.58-2.7-6.88-.46-.08-1.75.93-1.75.93z"/></defs><g><g transform="translate(-606 -2804)"><use xlink:href="#prswa"/></g></g></svg>